<svg id="Layer_1" enable-background="new 0 0 70 70" viewBox="0 0 70 70" xmlns="http://www.w3.org/2000/svg"><g><path d="m61.15 20.55h-.75c.24-.48.45-.97.62-1.48l1.96-.48c.76-.2 1.28-.89 1.28-1.67v-1.97c0-.8-.54-1.49-1.3-1.67l-1.94-.48c-.17-.52-.39-1.04-.64-1.54l1.02-1.7c.43-.67.33-1.54-.24-2.1l-1.4-1.41c-.57-.57-1.44-.67-2.1-.25l-1.73 1.03c-.51-.26-1.02-.47-1.54-.64l-.47-1.94c-.18-.77-.87-1.31-1.67-1.31h-1.97c-.8 0-1.49.54-1.67 1.3l-.48 1.95c-.53.17-1.04.38-1.55.64l-1.7-1.02c-.68-.43-1.55-.33-2.12.24l-1.4 1.4c-.56.56-.67 1.42-.26 2.1l1.05 1.72c-.26.5-.48 1.02-.65 1.54l-1.93.48c-.77.18-1.31.87-1.31 1.67v.59c-1.41.93-2.52 2.21-3.25 3.69-1.53-3.1-4.71-5.25-8.4-5.25h-13.11c-2.14 0-3.89 1.74-3.89 3.89v2.69h-.76c-3.23-.02-5.85 2.6-5.85 5.83v29.1c0 3.22 2.62 5.85 5.85 5.85h19.53c.47 3.23 3.26 5.72 6.62 5.72s6.15-2.49 6.62-5.72h19.53c3.22 0 5.85-2.62 5.85-5.85v-29.1c0-3.23-2.62-5.85-5.85-5.85zm-20.95-5.43 2.31-.57c.34-.08.62-.35.71-.69.2-.74.5-1.46.9-2.13.18-.31.18-.69-.01-1l-1.24-2.04 1.13-1.15 2.06 1.23c.3.18.68.18.99 0 .68-.4 1.39-.69 2.12-.88.35-.09.62-.36.71-.71l.57-2.32h1.63l.57 2.32c.09.35.36.62.7.71.72.18 1.43.48 2.13.88.3.18.68.17.98-.01l2.05-1.23 1.14 1.15-1.23 2.05c-.18.3-.18.68-.01.98.4.69.7 1.41.89 2.14.09.34.36.61.71.69l2.31.57v1.64l-2.31.57c-.34.08-.61.35-.71.69-.2.74-.5 1.46-.89 2.13-.18.31-.18.68 0 .99l1.23 2.06-.92.92-.23.23-2.05-1.24c-.3-.18-.68-.19-.99-.01-.69.4-1.41.7-2.14.89-.34.09-.61.36-.69.71l-.55 2.31h-1.62l-.57-2.32c-.09-.35-.35-.62-.7-.71-.74-.19-1.46-.49-2.13-.89-.31-.18-.69-.18-.99.01l-2.05 1.24-1.15-1.15 1.24-2.04c.19-.31.19-.69 0-1-.4-.66-.7-1.37-.89-2.11-.09-.34-.36-.61-.71-.69l-2.31-.57v-1.65zm-4.23 8.21c0-2.15.95-4.17 2.54-5.56.23.39.58.7 1.05.82l1.94.48c.17.53.39 1.04.65 1.54l-1.05 1.73c-.39.68-.28 1.53.27 2.08l1.4 1.4c.56.56 1.42.67 2.1.26l1.72-1.04c.5.26 1.02.47 1.54.64l.47 1.92c.18.78.87 1.33 1.67 1.33h1.97c.81 0 1.49-.55 1.67-1.31l.48-1.94c.52-.17 1.04-.39 1.54-.64l1.73 1.04c.25.15.52.2.79.22v25.85c0 1.07-.87 1.95-1.95 1.95h-13.11c-4.09 0-7.42-3.33-7.42-7.42zm-22.47-7.41h13.11c4.09 0 7.42 3.33 7.42 7.42v23.35c0 4.09-3.33 7.42-7.42 7.42h-13.11c-1.07 0-1.95-.87-1.95-1.95v-30.62c0-.01 0-.01 0-.02s0-.01 0-.02v-3.64c0-1.07.87-1.94 1.95-1.94zm21.5 49.21c-2.29 0-4.2-1.62-4.65-3.78h9.3c-.45 2.15-2.36 3.78-4.65 3.78zm30.06-9.63c0 2.15-1.75 3.91-3.91 3.91h-20.43s0 0-.01 0h-11.42s0 0-.01 0h-20.43c-2.15 0-3.91-1.75-3.91-3.91v-29.1c0-2.15 1.75-3.91 3.91-3.91h.76v29.67c0 2.14 1.74 3.89 3.89 3.89h13.11c3.68 0 6.86-2.14 8.39-5.24 1.53 3.1 4.71 5.24 8.39 5.24h13.11c2.14 0 3.89-1.74 3.89-3.89v-26.97l.76-.76c.51-.51.62-1.27.33-1.9 2 .17 3.58 1.83 3.58 3.88z"/><path d="m18.41 31.51c.17.12.37.18.57.18.3 0 .6-.14.79-.4l7.13-9.91c.31-.43.21-1.04-.22-1.35s-1.04-.21-1.35.22l-7.13 9.91c-.33.43-.23 1.04.21 1.35z"/><path d="m18.45 25.12c.19.17.42.25.65.25.26 0 .53-.11.72-.32.36-.4.33-1.01-.06-1.37l-1.63-1.49 1.63-1.48c.4-.36.43-.97.07-1.37s-.97-.43-1.37-.07l-2.42 2.2c-.2.18-.32.44-.32.72 0 .27.12.53.32.72z"/><path d="m25.26 26.48c-.36.4-.33 1.01.07 1.37l1.63 1.48-1.63 1.49c-.4.36-.42.97-.06 1.37.19.21.45.32.72.32.23 0 .47-.08.65-.25l2.42-2.2c.2-.18.32-.45.32-.72s-.12-.53-.32-.72l-2.42-2.2c-.41-.36-1.02-.33-1.38.06z"/><path d="m15.6 38.75h14.2c.54 0 .97-.43.97-.97s-.43-.97-.97-.97h-14.2c-.54 0-.97.43-.97.97s.44.97.97.97z"/><path d="m15.6 43.63h14.2c.54 0 .97-.43.97-.97s-.43-.97-.97-.97h-14.2c-.54 0-.97.43-.97.97s.44.97.97.97z"/><path d="m15.6 48.51h7.19c.54 0 .97-.43.97-.97s-.43-.97-.97-.97h-7.19c-.54 0-.97.43-.97.97s.44.97.97.97z"/><path d="m40.11 38.75h14.2c.54 0 .97-.43.97-.97s-.43-.97-.97-.97h-14.2c-.54 0-.97.43-.97.97s.44.97.97.97z"/><path d="m40.11 43.63h14.2c.54 0 .97-.43.97-.97s-.43-.97-.97-.97h-14.2c-.54 0-.97.43-.97.97s.44.97.97.97z"/><path d="m40.11 48.51h7.19c.54 0 .97-.43.97-.97s-.43-.97-.97-.97h-7.19c-.54 0-.97.43-.97.97s.44.97.97.97z"/><path d="m51.27 21.14c.33 0 .66-.03.99-.09 2.06-.39 3.71-2.03 4.11-4.08.34-1.73-.2-3.49-1.42-4.72-1.23-1.23-2.99-1.76-4.72-1.42-2.06.4-3.7 2.06-4.08 4.12-.32 1.72.22 3.47 1.45 4.68.97.98 2.3 1.51 3.67 1.51zm-3.22-5.84c.23-1.27 1.28-2.32 2.54-2.57.22-.04.45-.06.67-.06.87 0 1.68.33 2.31.96.78.78 1.11 1.87.89 2.98-.25 1.26-1.3 2.31-2.56 2.55-1.1.21-2.17-.12-2.95-.89-.78-.79-1.11-1.87-.9-2.97z"/></g></svg>