<svg id="Layer_1" viewBox="0 0 512 512" xmlns="http://www.w3.org/2000/svg" data-name="Layer 1"><path d="m302.649 15.5 38.082 46.711h-18.47a6 6 0 0 0 -6 6v85.878h-27.233v-85.879a6 6 0 0 0 -6-6h-18.47zm-50.731 58.711h25.113v85.873a5.994 5.994 0 0 0 6 6h39.234a6 6 0 0 0 6-6v-85.873h25.105a6 6 0 0 0 4.647-9.794l-50.726-62.209a5.989 5.989 0 0 0 -9.289 0l-50.736 62.209a6 6 0 0 0 4.652 9.794zm163.358 84.562 23.415 28.707h-9.459a6 6 0 0 0 -6 6v59.29h-15.89v-59.289a6 6 0 0 0 -6-6h-9.473l23.409-28.707zm-36.039 40.709h16.1v59.289a6 6 0 0 0 6 6h27.892a6 6 0 0 0 6-6v-59.289h16.1a6 6 0 0 0 4.647-9.794l-36.049-44.2a6 6 0 0 0 -9.3 0l-36.04 44.2a6 6 0 0 0 4.647 9.794zm-189.226-40.709 23.405 28.707h-9.468a6 6 0 0 0 -6 6v59.29h-15.886v-59.289a6 6 0 0 0 -6-6h-9.462l23.409-28.707zm-36.053 40.709h16.1v59.289a6 6 0 0 0 6 6h27.887a6 6 0 0 0 6-6v-59.289h16.1a6 6 0 0 0 4.647-9.794l-36.039-44.2a6 6 0 0 0 -9.3 0l-36.049 44.2a6 6 0 0 0 4.647 9.794zm163.382 62.157c0 5.322-3.581 9.9-8.69 11.951v-23.9c5.109 2.052 8.69 6.633 8.69 11.95zm-29.392-38.214c0-5.317 3.581-9.9 8.7-11.95v23.9c-5.119-2.047-8.7-6.628-8.7-11.95zm29.392 0a6 6 0 1 0 12 0c0-11.9-8.86-21.891-20.687-24.457v-6.35a6 6 0 1 0 -12 0v6.35c-11.837 2.566-20.7 12.554-20.7 24.457s8.86 21.891 20.7 24.462v25.7c-5.119-2.048-8.7-6.629-8.7-11.951a6 6 0 1 0 -12 0c0 11.9 8.86 21.891 20.7 24.462v6.35a6 6 0 0 0 12 0v-6.348c11.827-2.571 20.687-12.559 20.687-24.462s-8.86-21.89-20.687-24.457v-25.706c5.109 2.052 8.69 6.633 8.69 11.95zm-14.691 80.486a61.379 61.379 0 1 0 -61.379-61.379 61.442 61.442 0 0 0 61.379 61.379zm0-134.76a73.381 73.381 0 1 1 -73.381 73.381 73.459 73.459 0 0 1 73.381-73.381zm-198.162 197.393 63.013 100.791-46.437 30.3-63.013-100.793 46.437-30.3zm93.03-35.61a15.213 15.213 0 0 1 11.573-2.147l116.666 22.934a17.484 17.484 0 0 1 -6.737 34.312l-85.219-16.753a6 6 0 0 0 -2.307 11.776l85.207 16.744a29.518 29.518 0 0 0 34.619-23.244 29.158 29.158 0 0 0 -1.788-17.168l79.229-59.728a16.481 16.481 0 0 1 17.758-1.487 17.248 17.248 0 0 1 9.629 15.706 16.487 16.487 0 0 1 -5.817 12.375l-131.891 120.384a15.32 15.32 0 0 1 -13.162 3.991l-111.677-16.98a6.012 6.012 0 0 0 -3.85.713l-22.141 12.521-42.965-68.724 72.871-45.225zm-83.4 178.248-69.357-110.968a5.99 5.99 0 0 1 1.807-8.2l56.491-36.86a6 6 0 0 1 8.36 1.845l6.869 10.988 72.913-45.248a27.208 27.208 0 0 1 20.2-3.722l116.681 22.928a29.162 29.162 0 0 1 14.611 7.572l78.848-59.444a28.246 28.246 0 0 1 30.444-2.585 29.171 29.171 0 0 1 16.168 26.627 28.69 28.69 0 0 1 -9.729 21l-131.893 120.385a27.049 27.049 0 0 1 -18.53 7.339 29.612 29.612 0 0 1 -4.52-.35l-109.633-16.663-19.867 11.247 6.808 10.894a6 6 0 0 1 -1.811 8.2l-56.487 36.859a6 6 0 0 1 -8.369-1.844z" fill-rule="evenodd"/></svg>