<svg id="Layer_1_1_" enable-background="new 0 0 64 64" height="512" viewBox="0 0 64 64" width="512" xmlns="http://www.w3.org/2000/svg"><path d="m40 31v-10c0-2.312-1.586-4.244-3.721-4.813.886-.9 1.499-2.061 1.652-3.37.061-.307.069-.598.069-.817 0-3.309-2.691-6-6-6s-6 2.691-6 6c0 .219.008.51.057.736.159 1.35.779 2.535 1.673 3.448-2.14.566-3.73 2.501-3.73 4.816v10c0 .553.447 1 1 1h14c.553 0 1-.447 1-1zm-8-23c1.423 0 2.666.752 3.375 1.874-1.018-.562-2.173-.874-3.375-.874s-2.357.312-3.375.874c.709-1.122 1.952-1.874 3.375-1.874zm0 3c1.522 0 2.941.695 3.88 1.866-.388 1.807-1.985 3.134-3.88 3.134-1.873 0-3.456-1.298-3.877-3.137.939-1.17 2.356-1.863 3.877-1.863zm.911 12.83-.911 1.367-.911-1.367.911-3.19zm5.089 6.17h-12v-9c0-1.654 1.346-3 3-3h1.674l-1.636 5.726c-.08.282-.033.585.13.829l2 3c.186.278.498.445.832.445s.646-.167.832-.445l2-3c.163-.244.21-.547.13-.829l-1.636-5.726h1.674c1.654 0 3 1.346 3 3z"/><path d="m14.124 22.124 1.986-.234c-.072-.614-.109-1.239-.11-1.856l-2 .003c.001.693.043 1.396.124 2.087z"/><path d="m42.756 34.435-1.195-1.604c-.496.37-1.018.714-1.552 1.023l1.002 1.73c.6-.347 1.188-.734 1.745-1.149z"/><path d="m24.018 33.87c-.538-.311-1.062-.653-1.555-1.021l-1.193 1.604c.555.414 1.144.801 1.748 1.149z"/><path d="m16.971 25.501c-.212-.58-.392-1.18-.536-1.782l-1.945.465c.162.678.364 1.352.603 2.003z"/><path d="m34.73 4.231c.608.104 1.217.246 1.81.422l.568-1.918c-.669-.197-1.354-.357-2.04-.475z"/><path d="m39.078 3.446-.787 1.838c.568.244 1.129.523 1.665.831l.994-1.736c-.602-.345-1.232-.659-1.872-.933z"/><path d="m22.958 4.434 1.006 1.729c.533-.311 1.092-.593 1.657-.839l-.797-1.834c-.637.277-1.265.594-1.866.944z"/><path d="m21.036 31.652c-.447-.421-.878-.875-1.278-1.351l-1.529 1.289c.45.534.934 1.045 1.437 1.519z"/><path d="m21.215 5.587c-.555.416-1.093.87-1.599 1.35l1.377 1.451c.449-.427.928-.83 1.421-1.199z"/><path d="m27.367 4.681c.592-.179 1.199-.324 1.807-.433l-.35-1.969c-.685.121-1.37.285-2.037.487z"/><path d="m30.901 2.034.119 1.996c.62-.037 1.248-.038 1.863-.006l.107-1.998c-.686-.037-1.395-.033-2.089.008z"/><path d="m18.644 28.812c-.339-.513-.653-1.054-.933-1.606l-1.785.902c.314.622.668 1.23 1.05 1.808z"/><path d="m49.999 19.959-.445-.012-1.554.053c0 .624-.036 1.248-.106 1.856l1.986.23c.08-.684.12-1.386.119-2.127z"/><path d="m47.557 16.248c.145.602.255 1.217.328 1.831l1.986-.238c-.083-.69-.207-1.383-.369-2.06z"/><path d="m44.222 9.674c.401.473.776.973 1.115 1.485l1.668-1.105c-.383-.577-.806-1.14-1.256-1.673z"/><path d="m46.274 12.765c.28.554.531 1.127.744 1.705l1.877-.691c-.24-.651-.522-1.297-.838-1.918z"/><path d="m48.091 28.077-1.787-.898c-.276.551-.59 1.092-.931 1.608l1.67 1.102c.384-.582.736-1.192 1.048-1.812z"/><path d="m42.985 31.633 1.371 1.455c.505-.476.987-.987 1.436-1.521l-1.531-1.285c-.399.474-.828.929-1.276 1.351z"/><path d="m49.521 24.147-1.947-.459c-.142.602-.32 1.2-.532 1.781l1.879.686c.237-.655.439-1.33.6-2.008z"/><path d="m14.116 17.948 1.986.227c.07-.615.178-1.231.318-1.832l-1.947-.457c-.159.676-.279 1.371-.357 2.062z"/><path d="m26.857 37.254.57-1.916c-.59-.177-1.179-.39-1.749-.635l-.789 1.838c.641.275 1.303.516 1.968.713z"/><path d="m15.068 13.878 1.881.682c.21-.582.457-1.157.734-1.711l-1.789-.895c-.311.623-.588 1.271-.826 1.924z"/><path d="m41.511 7.133c.498.368.978.77 1.427 1.191l1.369-1.459c-.506-.475-1.046-.925-1.606-1.34z"/><path d="m19.719 9.745-1.535-1.281c-.444.531-.863 1.097-1.245 1.678l1.672 1.098c.339-.518.712-1.021 1.108-1.495z"/><path d="m30.974 37.971.111-1.996c-.616-.035-1.237-.106-1.848-.213l-.344 1.971c.687.119 1.387.2 2.081.238z"/><path d="m36.603 35.329.574 1.916c.666-.2 1.328-.441 1.967-.718l-.795-1.836c-.568.247-1.155.461-1.746.638z"/><path d="m33.062 37.968c.693-.039 1.394-.121 2.079-.242l-.348-1.969c-.608.106-1.229.18-1.847.215z"/><path d="m27 48h2v2h-2z"/><path d="m31 48h2v2h-2z"/><path d="m35 48h2v2h-2z"/><path d="m27 52h2v2h-2z"/><path d="m31 52h2v2h-2z"/><path d="m35 52h2v2h-2z"/><path d="m47 50h-6v-4c0-.345-.178-.665-.47-.848l-8-5c-.324-.203-.736-.203-1.061 0l-8 5c-.291.183-.469.503-.469.848v4h-6c-.553 0-1 .447-1 1v10c0 .553.447 1 1 1h30c.553 0 1-.447 1-1v-10c0-.553-.447-1-1-1zm-24 10h-5v-4h3v-2h-3v-2h5zm10 0h-2v-2h2zm6 0h-4v-3c0-.553-.447-1-1-1h-4c-.553 0-1 .447-1 1v3h-4v-13.445l7-4.375 7 4.375zm7-6h-3v2h3v4h-5v-8h5z"/><path d="m15.151 36.596-3.618-.554-1.628-3.467c-.165-.351-.517-.575-.905-.575s-.74.224-.905.575l-1.628 3.467-3.618.554c-.37.057-.678.315-.797.671s-.029.747.232 1.016l2.647 2.713-.627 3.844c-.062.378.099.758.411.979s.726.243 1.06.058l3.225-1.784 3.225 1.782c.15.084.317.125.483.125.202 0 .404-.062.576-.183.312-.221.473-.601.411-.979l-.627-3.844 2.647-2.713c.262-.269.352-.66.232-1.016s-.426-.613-.796-.669zm-3.867 3.364c-.222.227-.322.546-.271.859l.377 2.31-1.906-1.054c-.151-.083-.317-.125-.484-.125s-.333.042-.483.125l-1.907 1.054.377-2.31c.051-.313-.05-.633-.271-.859l-1.641-1.682 2.222-.34c.329-.05.612-.262.754-.563l.949-2.021.949 2.021c.142.302.425.514.754.563l2.222.34z"/><path d="m61.151 36.596-3.618-.554-1.628-3.467c-.165-.351-.517-.575-.905-.575s-.74.224-.905.575l-1.628 3.467-3.618.554c-.37.057-.678.315-.797.671s-.029.747.232 1.016l2.647 2.713-.627 3.844c-.062.378.099.758.411.979s.726.243 1.06.058l3.225-1.784 3.225 1.782c.15.084.317.125.483.125.202 0 .404-.062.576-.183.312-.221.473-.601.411-.979l-.627-3.844 2.647-2.713c.262-.269.352-.66.232-1.016s-.426-.613-.796-.669zm-3.867 3.364c-.222.227-.322.546-.271.859l.377 2.31-1.906-1.054c-.15-.083-.316-.125-.483-.125s-.333.042-.483.125l-1.906 1.054.377-2.31c.051-.313-.05-.633-.271-.859l-1.641-1.682 2.222-.34c.329-.05.612-.262.754-.563l.947-2.021.949 2.021c.142.302.425.514.754.563l2.222.34z"/></svg>