<svg id="Layer_1" viewBox="0 0 512 512" xmlns="http://www.w3.org/2000/svg" data-name="Layer 1"><path d="m263.012 12.991 174.327 61.646a10.446 10.446 0 0 1 5.263 15.6l.011.007a10.306 10.306 0 0 1 -5.274 4.107l-53.023 18.751v77.898a19.1 19.1 0 0 1 -12.447 18l-4.622 1.755v27.113a6.068 6.068 0 0 1 -6.067 6.067h-31.211a6.067 6.067 0 0 1 -6.067-6.067v-10.648l-60.487 22.967a18.559 18.559 0 0 1 -13.635 0l-108.454-41.181a19.1 19.1 0 0 1 -12.447-18v-77.906l-53.023-18.746a10.445 10.445 0 0 1 -5.263-15.6l-.011-.007a10.316 10.316 0 0 1 5.274-4.108l174.327-61.648a18.582 18.582 0 0 1 12.829 0zm31.347 423.509h67.441c1.814-13.168 10.084-25.126 18.125-36.752 6.839-9.888 13.5-19.509 14.623-28.067l-.139-32.451c-.228-4.023-3.405-14.783-8.13-14.783v-.007l-.431.019a207.037 207.037 0 0 1 -45.566 0c-7.813-.878-13.93 11.1-6.843 18.189a10.6 10.6 0 0 0 7.506 3.128h17.5a6.067 6.067 0 0 1 0 12.134c-11.436 0-31.151 14.937-31.151 25.544a6.067 6.067 0 1 1 -12.133 0c0-9.395 7-19.093 15.772-26.13a23.308 23.308 0 0 1 -12.868-8.049 22.7 22.7 0 0 1 -32.431-.793 19.437 19.437 0 0 1 -20.044 4.351l-.861 19.236c-.9 20.065 7.817 32.4 18.07 46.9 1.539 2.178 10.67 15.1 11.556 17.528zm79.451 1.482c17.042 6.9 16.979 31.108-.1 37.921v18.18a6.066 6.066 0 0 1 -6.066 6.067h-78.973a6.066 6.066 0 0 1 -6.066-6.067v-19.624a20.417 20.417 0 0 1 -.4-34.827c-3.061-4.85-6.251-9.363-9.31-13.692-11.532-16.316-21.333-30.185-20.25-54.391l1.34-29.929a19.36 19.36 0 0 1 -1.363-7.152v-30.06a19.515 19.515 0 0 1 28.047-17.508 22.77 22.77 0 0 1 38.409-8.028 23.22 23.22 0 0 1 37.526 4.814c15.043-10.994 36.162-.083 36.162 18.391v11.665c9.473 4.449 13.917 18.516 13.917 28.085l-.1 31.24c-1.456 11.511-8.974 22.381-16.7 33.553-7.192 10.4-14.586 21.09-16.07 31.362zm-12.232 39.364h-66.84v10.671h66.84v-10.67zm4.606-28.713h-73.134a8.29 8.29 0 0 0 0 16.579l73.966-.042c9.657-1.093 10.1-15.138.009-16.494a8.367 8.367 0 0 0 -.841-.043zm-166.059-7.111a21.28 21.28 0 0 0 -4.751-37.082c1.49-11.054 9.418-22.517 17.127-33.662 8.167-11.808 16.111-23.294 17.636-35.411l.1-33.031c0-10.064-4.7-24.979-14.745-29.523v-12.591c0-19.462-22.418-30.81-38.074-18.943a24.245 24.245 0 0 0 -39.638-5.1c-12.325-14.007-34.918-8.936-40.479 8.479a20.313 20.313 0 0 0 -29.565 18.036v31.848a20.139 20.139 0 0 0 1.447 7.513l-1.421 31.785c-1.143 25.524 9.209 40.171 21.39 57.405 3.307 4.679 6.758 9.563 10.066 14.828a21.265 21.265 0 0 0 -1.538 35.382v52.629a6.067 6.067 0 0 0 6.067 6.067h90.153a6.066 6.066 0 0 0 6.066-6.067l.159-52.561zm-90.311 4.027h.394 77.483.335l-.148 42.467h-78.064v-42.466zm253.277-131.923q8.7-.006 17.542-.811v-10.737a10.635 10.635 0 0 0 -21.27 0v11.514q1.868.036 3.728.034zm-21.48-1.2q2.819.317 5.618.549v-18.33c0-9.72-11.881-14.91-18.949-7.841a11.076 11.076 0 0 0 -3.268 7.841v23.921a19.973 19.973 0 0 1 16.6-6.145zm-28.733-17.776v38.291a10.635 10.635 0 0 1 -21.27 0v-38.77a10.6 10.6 0 0 1 3.129-7.506c6.473-6.474 18.141-2.432 18.141 7.98zm-33.4 38.291c0 2.518.03 4.528-2.166 6.724a7.359 7.359 0 0 1 -12.551-5.192v-30.06a7.359 7.359 0 0 1 14.717 0zm-168.14 70.059c-.815-2.557-10.659-16.428-12.281-18.722-10.9-15.424-20.166-28.534-19.209-49.916l.934-20.874a20.234 20.234 0 0 0 21.586-4.618 23.7 23.7 0 0 0 34.379.82 24.32 24.32 0 0 0 14.425 8.872c-9.424 7.37-17.172 17.775-17.172 27.877a6.067 6.067 0 1 0 12.133 0c0-11.475 21.092-27.423 33.365-27.423a6.067 6.067 0 0 0 0-12.134h-18.544a11.59 11.59 0 0 1 -8.208-3.421c-7.744-7.744-1.078-20.85 7.544-19.884a219.477 219.477 0 0 0 48.2 0c2.3-.251 4.236 1.593 5.8 4.22a30.754 30.754 0 0 1 3.818 14.54v31.646c-1.2 9.16-8.278 19.4-15.557 29.923-8.559 12.375-17.364 25.1-19.185 39.094zm76.353 12.134a9.144 9.144 0 0 1 0 18.287h-77.483a9.036 9.036 0 0 1 -3.813-.843c-9.015-4.214-5.725-17.444 3.813-17.444zm-43.981-136.54a20.94 20.94 0 0 1 17.907-7.055q3.188.359 6.353.615v-19.806c0-10.618-12.975-16.28-20.692-8.563a12.09 12.09 0 0 0 -3.568 8.563zm36.394-5.82a206.022 206.022 0 0 0 23.256-.847v-11.705c0-10.176-12.436-15.606-19.836-8.207a11.59 11.59 0 0 0 -3.42 8.207zm-48.528 20.142v-41.07c0-10.176-12.436-15.608-19.836-8.208a11.6 11.6 0 0 0 -3.421 8.208v41.07c0 10.176 12.437 15.608 19.837 8.208a11.592 11.592 0 0 0 3.42-8.208zm-35.366 1.078q-.024-.537-.024-1.078v-30.225a8.157 8.157 0 0 0 -16.314 0v31.848a8.157 8.157 0 0 0 16.314 0c0-.184.008-.366.024-.545zm275.972-109.441-7.291 2.771a21.648 21.648 0 0 1 2.356 10.489c3.093-1.175 4.935-3.418 4.935-6.809zm-16.619-6.634 12.04-4.572a6.885 6.885 0 0 0 4.579-6.674v-49.273l-25.987 9.19 3.749 49.34a21.493 21.493 0 0 1 5.619 1.994zm-31.663 24.97-60.487 22.967a18.559 18.559 0 0 1 -13.635 0l-108.452-41.181-.313-.122v6.447a6.887 6.887 0 0 0 4.579 6.674l108.454 41.186a6.884 6.884 0 0 0 5.1 0l64.754-24.588zm-182.887-36.216a6.885 6.885 0 0 0 4.579 6.674l108.454 41.182a6.884 6.884 0 0 0 5.1 0l66.187-25.129a21.738 21.738 0 0 1 12.53-12.5l-3.5-46.127-71.351 25.227a18.582 18.582 0 0 1 -12.829 0l-109.17-38.6v49.278zm182.646-44.966-69.573-31.713a6.045 6.045 0 1 1 5.024-11l80.962 36.906 88.816-31.4-169.9-60.082a6.813 6.813 0 0 0 -4.771 0l-169.91 60.082 169.9 60.082a6.825 6.825 0 0 0 4.771 0l64.676-22.871zm15.17 68.7a9.51 9.51 0 0 0 -2.794 6.746v34.65h19.078v-34.65a9.55 9.55 0 0 0 -16.284-6.742z" fill-rule="evenodd"/></svg>