<svg enable-background="new 0 0 512 512" height="512" viewBox="0 0 512 512" width="512" xmlns="http://www.w3.org/2000/svg"><g id="_x30_1_Partnership"><g><path d="m31.629 504.358 449.202-.436c12.957-.013 23.487-10.564 23.475-23.52l-.08-82.351c-.004-4.286-3.476-7.751-7.762-7.747s-7.751 3.476-7.747 7.762l.08 82.351c.004 4.407-3.574 7.992-7.981 7.997l-449.202.436c-4.407.004-7.992-3.574-7.997-7.981l-.327-336.53 465.18-.452.204 209.751c.004 4.286 3.476 7.751 7.762 7.747s7.751-3.476 7.747-7.762c-.032-30.847.121 115.872-.336-322.521-.013-12.949-10.556-23.472-23.505-23.46l-449.188.436c-12.949.013-23.472 10.556-23.459 23.505.077 83.928.409 444.524.414 449.3.012 12.957 10.563 23.488 23.52 23.475zm-8.426-472.79c-.004-4.4 3.566-7.977 7.966-7.982l449.187-.436c4.4-.004 7.977 3.566 7.982 7.966l.094 97.254-465.134.452z"/><path d="m164.492 47.379c-15.842.015-28.718 12.916-28.702 28.758s12.916 28.718 28.758 28.702c15.842-.015 28.718-12.916 28.702-28.758s-12.917-28.718-28.758-28.702zm.04 41.951c-7.292.007-13.227-5.916-13.234-13.209-.007-7.292 5.916-13.227 13.209-13.234 7.292-.007 13.227 5.916 13.234 13.209.007 7.413-5.795 13.227-13.209 13.234z"/><path d="m248.395 47.297c-15.842.015-28.718 12.916-28.702 28.758s12.916 28.718 28.758 28.702c15.834-.015 28.71-12.916 28.695-28.758s-12.917-28.717-28.751-28.702zm.041 41.952c-7.292.007-13.227-5.916-13.234-13.209s5.916-13.227 13.209-13.234c7.285-.007 13.22 5.916 13.227 13.209.006 7.413-5.789 13.227-13.202 13.234z"/><path d="m430.984 47.12-98.693.096c-15.842.015-28.718 12.916-28.702 28.758s12.916 28.718 28.758 28.702l98.693-.096c15.842-.015 28.718-12.916 28.702-28.758s-12.917-28.717-28.758-28.702zm.041 41.952-98.693.096c-7.292.007-13.227-5.916-13.234-13.209-.007-7.413 5.795-13.227 13.209-13.234l98.693-.096c7.414-.007 13.227 5.795 13.234 13.209.006 7.292-5.917 13.227-13.209 13.234z"/><path d="m80.588 47.46c-15.842.015-28.718 12.916-28.702 28.758.015 15.842 12.916 28.718 28.758 28.702s28.718-12.916 28.702-28.758c-.015-15.841-12.916-28.717-28.758-28.702zm.041 41.952c-7.292.007-13.227-5.916-13.234-13.209s5.916-13.227 13.209-13.234 13.227 5.916 13.234 13.209c.007 7.413-5.796 13.227-13.209 13.234z"/><path d="m397.15 302.601c7.553 2.525 14.854.268 19.705-4.612l25.048-25.264c3.011-3.039 2.999-7.931-.026-10.95l-96.014-95.828c-3.021-3.015-7.942-3.035-10.973.018l-25.078 25.188c-5.573 5.595-6.968 13.798-4.203 20.703-17.503 13.384-28.293 5.024-49.243 21.176-17.295-10.333-29.516-6.237-44.602-18.253 2.401-6.762.963-14.603-4.434-20.005l-25.135-25.139c-3.018-3.028-7.942-3.034-10.973.003l-95.82 96.014c-3.019 3.024-3.021 7.916-.005 10.95l25.09 25.215c5.193 5.215 13.047 7.2 20.487 4.339 9.805 10.301 10.532 19.665 13.167 27.32-1.628 1.03-3.185 2.212-4.602 3.631l-7.618 7.641c-10.281 10.301-11.219 26.568-2.13 37.039 4.926 5.656 12.233 9.195 20.443 9.062-.113 6.295 1.863 12.539 6.155 17.484 4.919 5.655 12.17 9.165 20.371 9.077-.095 6.159 1.804 12.272 5.938 17.136 4.986 5.878 12.323 9.526 20.655 9.419-.088 6.151 1.805 12.253 5.927 17.112 10.059 11.872 27.922 12.775 39 1.658l8.162-8.134c5.173 4.148 11.723 15.915 26.906 15.9 13.853-.013 26.471-10.923 26.203-26.667 7.45.087 14.163-2.817 19.085-7.748 5.008-5.01 7.766-11.677 7.759-18.765 0-.014-.004-.027-.004-.04.009 0 .018.002.026.002 6.793-.007 13.583-2.595 18.75-7.772 5.174-5.187 7.747-12.001 7.73-18.809.023 0 .044.007.066.007 9.238-.009 17.677-4.727 22.577-12.615 5.58-8.988 4.778-20.848-1.561-29.81 16.257-20.356 8.888-30.093 23.171-45.683zm-76.347-100.508 19.601-19.685 85.046 84.881-19.601 19.776c-1.437 1.451-3.789 1.458-5.225.013-2.95-2.948-80.684-80.643-79.824-79.782-1.433-1.431-1.435-3.763.003-5.203zm-209.325 88.779-19.64-19.738 84.874-85.046 19.647 19.647c1.433 1.437 1.435 3.77-.003 5.202l-79.653 79.937c-1.468 1.471-3.811 1.42-5.225-.002zm20.017 80.734c-3.715-4.275-3.086-11.409 1.401-15.904l7.618-7.641c4.267-4.275 11.267-4.308 15.251-.348l.061.068c5.091 5.862 4.182 12.023.326 15.887l-8.503 8.512c-4.298 4.321-12.113 4.079-16.154-.574zm26.605 26.553c-3.715-4.267-3.078-11.409 1.408-15.904l7.618-7.633c2.141-2.145 4.957-3.223 7.774-3.226s5.635 1.07 7.78 3.211c4.283 4.274 4.297 11.249.023 15.546l-8.518 8.58c-4.358 4.337-12.082 4.034-16.085-.574zm26.416 26.342c-3.586-4.207-2.957-11.189 1.401-15.57l7.754-7.8c4.307-4.347 11.287-4.289 15.554-.03l.045.045c4.29 4.282 4.297 11.264.015 15.554-.777.779-9.271 9.289-8.496 8.512-4.447 4.45-12.171 4.132-16.273-.711zm42.804 27.265c-4.486 4.487-12.142 4.101-16.206-.719-3.601-4.237-2.957-11.257 1.424-15.654l7.724-7.739c4.119-4.127 10.798-4.318 15.599.015v.008c4.299 4.291 4.312 11.265.008 15.562zm135.052-81.854c-3.669 5.901-12.398 6.874-17.231 2.088-.004-.004-.006-.008-.009-.011l-55.932-55.816c-3.032-3.026-7.939-3.021-10.965.011s-3.021 7.939.011 10.965l55.917 55.808c.007.007.015.011.022.018 4.288 4.298 4.294 11.279.008 15.581-4.297 4.305-11.286 4.312-15.592.015l-55.924-55.823c-3.032-3.026-7.939-3.021-10.965.011s-3.021 7.939.011 10.965l55.924 55.823c4.315 4.307 4.329 11.262.015 15.584-4.297 4.305-11.279 4.312-15.584.015-11.654-11.638-51.283-51.211-55.909-55.831-3.076-3.07-8.001-2.974-10.988.018-3.026 3.032-3.021 7.939.011 10.965l55.249 55.142c4.299 4.354 4.931 11.308 1.424 15.493-4.213 4.957-11.869 5.274-16.348.796l-11.398-11.376c1.675-9.036-1.282-17.643-7.302-23.651l-.045-.038c-5.174-5.164-11.973-7.738-18.768-7.727 0-.011.003-.021.003-.032-.007-7.08-2.77-13.734-7.78-18.734l-.045-.045c-5.01-5.001-11.669-7.751-18.75-7.744-.008 0-.015 0-.023 0-.002 0-.005.001-.007.001-.003-6.794-2.59-13.585-7.765-18.751-5.177-5.167-11.979-7.739-18.777-7.726.002-6.798-2.585-13.596-7.767-18.768l-.061-.068c-4.96-4.95-11.415-7.458-17.925-7.654-2.478-6.689-3.621-19.442-15.994-33.023l69.07-69.272c16.698 13.204 30.392 11.389 42.213 17.019l-29.816 29.957c-7.028 7.034-9.093 17.607-5.259 26.925 3.531 8.6 11.326 14.68 21.793 14.67 27.838-.027 37.835-20.638 54.459-34.243l.108.107c3.396 3.384-18.419-18.357 74.159 73.91 4.044 4.04 5.133 10.249 2.532 14.446zm.836-32.986-66.639-66.415-.061-.061c-3.1-3.094-7.176-4.643-11.257-4.639-4.066.004-8.131 1.553-11.226 4.638-16.671 14.394-23.033 29.707-43.15 29.726-.008 0-.015 0-.023 0-4.627-.033-6.569-3.545-7.191-5.051-1.154-2.801-1.256-6.92 1.891-10.073 5.201-5.225 37.735-37.908 35.68-35.843 18.144-18.145 31.835-7.878 54.249-25.297 7.079 7.078-25.64-25.637 69.208 69.202-15.558 17.825-9.666 27.638-21.481 43.813z"/></g></g></svg>